<svg width="190" height="111" viewBox="0 0 190 111" fill="none" xmlns="http://www.w3.org/2000/svg">
<path d="M114.965 95.2822C114.965 92.7656 114.081 91.118 113.088 90.2842C119.156 89.6289 125.517 87.4072 125.714 77.4502L125.719 76.9707C125.719 74.0256 124.648 71.6184 122.874 69.7314C123.152 69.0694 124.052 66.473 122.735 62.9355L122.601 62.5908C122.601 62.5908 120.282 61.8644 115 65.3555C114.628 65.2545 114.25 65.165 113.869 65.0811C113.758 64.706 113.607 64.3264 113.417 63.9424C113.711 63.2408 113.984 62.5754 114.231 61.9443C114.735 60.6007 115.018 59.6975 115.081 59.2354L115.095 59.0645C115.095 59.0645 115.223 58.8396 115.479 58.3916C115.799 57.9437 116.183 57.5602 116.631 57.2402C116.631 56.9203 116.951 56.2802 117.591 55.3203C118.295 54.2964 118.776 53.3363 119.032 52.4404C119.736 51.2244 120.472 50.2319 121.24 49.4639C122.071 48.6962 122.775 48.3116 123.351 48.3115C123.783 48.1675 124.467 48.0239 125.403 47.8799L126.423 47.7363C127.527 47.5443 128.703 47.3699 129.952 47.2139L131.223 47.0645C133.015 46.8085 134.647 46.6163 136.119 46.4883C137.655 46.3603 138.711 46.2959 139.287 46.2959L140.536 46.2002L140.055 60.8877C139.927 63.8956 139.831 65.9759 139.767 67.1279C139.703 68.2159 139.703 68.8241 139.767 68.9521C139.831 69.0801 139.959 69.2398 140.151 69.4316C140.279 70.0076 140.951 70.4881 142.167 70.8721C142.79 71.0688 143.422 71.2136 144.062 71.3096C144.064 71.3654 144.065 71.4119 144.063 71.4492C144.456 74.1781 145.055 76.7514 145.86 79.1689C146.688 81.4991 147.934 84.1061 149.598 86.9883C150.726 89.0708 151.822 90.8401 152.884 92.2959C154.002 93.7196 155.302 95.0751 156.784 96.3623C158.106 97.3725 159.538 98.0615 161.079 98.4277C162.621 98.7939 164.106 98.9334 165.535 98.8477C166.812 98.8211 167.923 98.75 168.867 98.6338L169.261 98.5811C170.862 98.0262 172.394 97.031 173.856 95.5957C175.184 94.3117 176.405 92.8915 177.519 91.335L177.99 90.6602C179.228 88.8369 180.173 87.1456 180.825 85.5869C181.287 85.0431 181.724 84.4926 182.137 83.9355L182.541 83.376C183.093 82.5401 183.463 81.7726 183.651 81.0732C184.423 79.7222 185.036 78.2928 185.492 76.7852L185.676 76.1348C186.115 74.4956 186.152 73.2835 185.786 72.499L185.707 72.3477C185.067 71.2393 184.345 70.437 183.541 69.9404C182.737 69.4439 182.027 69.5581 181.411 70.2832C180.913 70.5712 180.415 71.1169 179.918 71.9209C179.445 72.6374 179.083 73.2904 178.831 73.8789L178.721 74.1973C178.438 74.9669 177.979 75.9226 177.345 77.0645L177.067 77.5547C176.402 78.6984 175.627 79.849 174.744 81.0059C173.497 82.6862 172.329 84.2469 171.24 85.6885L170.833 86.2148C169.889 87.4068 168.973 88.3551 168.087 89.0605L167.898 89.207C166.949 89.9108 166.001 90.2231 165.056 90.1455C163.745 89.7942 162.371 88.8878 160.936 87.4258C159.524 85.8763 158.201 83.9053 156.968 81.5137C155.703 79.0665 154.639 76.3917 153.777 73.4902C153.721 72.9129 153.613 72.2818 153.453 71.5977L153.277 70.8965C152.986 69.8817 152.749 69.2795 152.566 69.0898C152.566 69.0898 152.501 68.7209 152.37 67.9834C152.333 67.5984 152.303 67.2737 152.28 67.0098L152.233 66.4004C151.67 63.7462 151.453 60.9575 151.579 58.0352L151.61 57.4482C151.794 54.3118 152.146 50.6345 152.667 46.417C152.995 43.5123 153.47 40.8623 154.091 38.4668L154.367 37.4551C155.099 34.8843 155.908 32.9519 156.793 31.6572L156.971 31.4062C157.625 30.3637 158.131 29.7032 158.487 29.4238C158.898 29.1124 159.279 29.003 159.628 29.0967C160.415 29.3076 160.949 29.849 161.231 30.7207C161.481 31.5372 162.056 33.2375 162.956 35.8213C163.119 36.6144 163.243 37.7258 163.328 39.1543C163.382 40.5273 163.404 41.8453 163.394 43.1074L163.376 43.9893C163.35 44.8081 163.297 45.4351 163.215 45.8701C163.026 46.0534 162.979 46.2283 163.075 46.3945C163.226 46.5288 163.824 46.9229 164.867 47.5771L165.319 47.668C166.234 47.8254 167.214 47.8423 168.257 47.7178L168.784 47.6436C170.259 47.383 171.165 46.712 171.501 45.6309C171.988 44.1213 172.243 42.4062 172.266 40.4854L172.261 39.6504C172.211 37.3884 171.932 35.1111 171.421 32.8193C170.879 30.4721 170.139 28.423 169.202 26.6729C168.234 24.8673 167.109 23.558 165.827 22.7461C163.661 21.0411 161.438 20.3284 159.161 20.6084L158.732 20.6572C156.596 20.9332 154.679 21.7001 152.98 22.958C152.448 23.3549 151.964 23.7648 151.528 24.1875C151.567 23.7525 151.609 23.3224 151.647 22.8965L151.959 19.2236C152.151 16.8558 152.279 14.8397 152.343 13.1758C152.407 11.5121 152.279 10.4242 151.959 9.91211C151.623 9.07217 151.018 8.18305 150.143 7.24512L149.751 6.83984C148.663 5.75189 147.415 4.85633 146.007 4.15234C144.599 3.38442 143.191 3.00007 141.784 3C141.208 3 140.535 3.2556 139.767 3.76758C138.999 4.27958 138.263 4.98388 137.559 5.87988C135.831 8.18373 134.072 10.7438 132.28 13.5596L131.025 15.6182C129.813 17.622 128.727 19.4637 127.767 21.1436C127.347 21.8527 126.944 22.5352 126.559 23.1904C126.024 17.6231 123.809 16.6556 115.411 16.541L113.219 16.5283V13.5283C116.303 13.5283 118.881 13.5831 120.951 13.8623C123.003 14.1392 124.973 14.6838 126.531 15.9814C126.709 16.1302 126.875 16.286 127.034 16.4453C127.862 15.0469 128.758 13.5618 129.722 11.9912L129.735 11.9697L129.748 11.9492C131.575 9.07842 133.379 6.45417 135.16 4.08008L135.179 4.05273L135.201 4.02637C136.056 2.93704 137.017 1.99523 138.103 1.27148C139.092 0.611791 140.357 0 141.784 0L142.153 0.00585938C143.99 0.0689287 145.755 0.602078 147.425 1.50977C149.084 2.34887 150.571 3.41768 151.872 4.71875C153.064 5.90994 154.059 7.20084 154.661 8.59863C155.055 9.34967 155.203 10.1546 155.275 10.7617C155.364 11.5176 155.376 12.3748 155.341 13.291C155.284 14.7715 155.177 16.5047 155.025 18.4854C156.223 18.0501 157.481 17.7647 158.795 17.6309L159.097 17.5986C162.161 17.3067 165.014 18.3303 167.56 20.2959C169.229 21.3895 170.561 22.9765 171.63 24.8633L171.846 25.2549L171.848 25.2568C172.797 27.0305 173.544 29.019 174.112 31.1982L174.344 32.1436L174.347 32.1553L174.349 32.167C174.901 34.6441 175.206 37.1174 175.26 39.584C175.315 42.0893 175.039 44.4178 174.366 46.5215L174.367 46.5225C173.587 49.0264 171.47 50.2154 169.306 50.5977L169.261 50.6055C167.527 50.8847 165.825 50.8741 164.198 50.502L163.702 50.3887L163.272 50.1191C162.743 49.7871 162.31 49.5107 161.983 49.2949C161.736 49.1318 161.352 48.877 161.084 48.6396L160.72 48.3164L160.477 47.8945C160.058 47.1687 159.897 46.2684 160.14 45.3623C160.189 45.1792 160.252 45.0099 160.322 44.8535C160.356 44.4662 160.387 43.8899 160.394 43.083C160.404 41.8806 160.383 40.6194 160.331 39.2998C160.256 38.0579 160.152 37.1695 160.044 36.5811C159.652 35.4543 159.319 34.4909 159.049 33.6953C158.493 34.6251 157.871 36.1017 157.251 38.2773V38.2793C156.547 40.7452 156.008 43.5652 155.649 46.7529L155.647 46.7695L155.645 46.7852C155.129 50.9596 154.784 54.5704 154.604 57.625C154.444 60.3359 154.605 62.8908 155.071 65.2988L155.167 65.7783L155.214 65.9971L155.227 66.2207C155.24 66.4331 155.277 66.8751 155.346 67.5869C155.375 67.7533 155.402 67.8984 155.424 68.0225C155.544 68.2603 155.625 68.4636 155.673 68.5859C155.757 68.8001 155.84 69.0341 155.921 69.2832L156.161 70.0713L156.173 70.1162C156.431 71.0744 156.62 71.9974 156.726 72.875C157.423 75.1789 158.249 77.3111 159.202 79.2754L159.633 80.1357L159.634 80.1387C160.766 82.3336 161.934 84.0556 163.113 85.3594C164.119 86.3781 164.917 86.8921 165.496 87.1299C165.645 87.0881 165.881 86.9827 166.218 86.7139C166.973 86.1125 167.854 85.1944 168.846 83.8809C169.929 82.4471 171.092 80.8924 172.334 79.2178L172.36 79.1846C173.291 77.9652 174.076 76.7726 174.722 75.6084C175.41 74.3686 175.8 73.5012 175.979 72.9512L176.02 72.8232L176.073 72.7002C176.414 71.9011 176.873 71.087 177.414 70.2676C177.937 69.4346 178.608 68.5801 179.487 67.957C180.086 67.3744 180.893 66.8583 181.929 66.6914C183.036 66.5133 184.02 66.7926 184.797 67.2041L185.118 67.3877L185.367 67.5488C186.595 68.3762 187.551 69.542 188.305 70.8477C189.4 72.7449 189.068 75.071 188.575 76.9111C188.073 78.7835 187.357 80.5598 186.433 82.2373C186.122 83.2038 185.634 84.1384 185.045 85.0293L185.019 85.0684L184.992 85.1064C184.495 85.8097 183.964 86.499 183.402 87.1777C182.669 88.8348 181.683 90.5603 180.471 92.3457C179.127 94.3254 177.622 96.1238 175.956 97.7363C174.243 99.4188 172.343 100.688 170.244 101.416L169.972 101.51L169.689 101.551C168.506 101.721 167.134 101.816 165.597 101.848L165.596 101.847C163.883 101.937 162.143 101.763 160.386 101.346C158.415 100.877 156.602 99.9995 154.962 98.7471L154.888 98.6895L154.817 98.6279C153.203 97.2262 151.768 95.734 150.524 94.1484L150.492 94.1064L150.46 94.0645C149.312 92.4905 148.16 90.6245 146.999 88.4883L146.37 87.377C144.946 84.808 143.825 82.4043 143.033 80.1738L143.013 80.1172C142.339 78.092 141.805 75.9761 141.404 73.7734C141.357 73.7593 141.31 73.747 141.264 73.7324C140.5 73.4913 139.699 73.1594 139.007 72.665C138.507 72.3075 137.951 71.7795 137.573 71.0469C137.402 70.8341 137.228 70.5811 137.084 70.2939C136.781 69.6873 136.747 69.0826 136.743 69.0264C136.724 68.811 136.719 68.5915 136.719 68.4004C136.719 68.0113 136.739 67.5223 136.772 66.9619L136.89 64.5654C136.938 63.5327 136.994 62.2651 137.058 60.7607L137.428 49.3936C137.113 49.4168 136.76 49.4449 136.369 49.4775C134.965 49.5998 133.392 49.785 131.648 50.0342L131.554 50.0459C129.878 50.2322 128.339 50.4475 126.937 50.6914L126.874 50.7021L126.811 50.7109C125.336 50.9034 124.572 51.0675 124.3 51.1582L123.838 51.3115H123.711C123.69 51.3262 123.665 51.3409 123.639 51.3604C123.552 51.4257 123.445 51.513 123.32 51.627C122.839 52.1155 122.324 52.7851 121.786 53.6758C121.408 54.8108 120.817 55.9152 120.086 56.9834L120.087 56.9844C119.87 57.311 119.725 57.5547 119.631 57.7236V58.7842L118.375 59.6816C118.228 59.7866 118.102 59.9055 117.991 60.0439C117.987 60.0506 117.983 60.057 117.979 60.0635C117.953 60.1869 117.924 60.3059 117.895 60.4189C118.746 60.0844 119.506 59.8636 120.178 59.7256C121.028 59.5511 121.731 59.5098 122.291 59.5352C122.571 59.5478 122.812 59.5765 123.014 59.6123C123.115 59.6302 123.206 59.6502 123.286 59.6699C123.327 59.6798 123.365 59.6894 123.4 59.6992C123.417 59.7041 123.434 59.7091 123.451 59.7139C123.459 59.7163 123.467 59.7183 123.475 59.7207L123.493 59.7266C123.495 59.7285 123.481 59.7814 122.68 62.3379L123.498 59.7285L124.847 60.1514L125.379 61.4609C126.665 64.6229 126.549 67.2929 126.193 69.0459C127.783 71.2371 128.719 73.8974 128.719 76.9707C128.719 82.8345 126.852 86.9438 123.613 89.5889C121.805 91.0647 119.721 91.9516 117.652 92.5059C117.855 93.3624 117.965 94.2917 117.965 95.2822C117.965 97.7012 117.95 101.974 117.94 104.8C117.935 106.2 117.932 107.241 117.932 107.528V110.528H98.2162V107.528C98.2162 107.109 98.202 104.058 98.1908 101.406C95.4146 101.365 93.2919 100.481 91.7455 99.2275C90.7245 98.4001 90.0588 97.4946 89.6439 96.7842C89.4356 96.4275 89.2861 96.1126 89.183 95.8691C89.1313 95.747 89.0907 95.6417 89.0599 95.5566C89.0593 95.555 89.0586 95.5534 89.058 95.5518C88.5912 94.4154 88.0697 93.7879 87.7543 93.4795C87.5972 93.3259 87.4805 93.2416 87.431 93.208L87.3216 93.1572L87.1244 93.0254C86.7214 92.7569 86.3359 92.4665 86.0013 92.1465C85.6899 91.8486 85.2754 91.3877 85.0023 90.7529C84.6947 90.0379 84.5589 89.0514 85.0062 88.0508C85.4064 87.1557 86.086 86.6811 86.4838 86.46C87.224 86.0485 87.9993 85.9573 88.2738 85.9277C88.4702 85.9066 88.6413 85.8978 88.764 85.8936C88.8267 85.8914 88.8803 85.89 88.9222 85.8896H89.0131C89.0139 85.8908 89.0136 85.9474 88.9789 88.7812L89.015 85.8896L89.099 85.8906L89.184 85.8965C89.2769 85.9029 89.3685 85.9133 89.4593 85.9229C88.1412 83.5658 87.4222 80.6049 87.4222 76.9707C87.4222 73.8944 88.3641 71.2359 89.9496 69.0488C89.593 67.2962 89.4786 64.6258 90.7601 61.4639L91.2924 60.1504L92.6449 59.7275L93.5404 62.5908L93.4066 62.9355C92.0941 66.473 92.9916 69.0694 93.2689 69.7314C91.5009 71.6184 90.4222 74.0256 90.4222 76.9707L90.4261 77.4492C90.6231 87.383 96.9753 89.6374 103.023 90.3076C102.232 90.9808 101.518 92.1715 101.267 93.9131C99.6912 94.6042 95.6836 95.7951 93.2162 91.6719C93.2162 91.6719 91.7544 89.081 88.9779 88.8896C88.9779 88.8896 86.2773 88.8566 88.7875 90.5293C88.7875 90.5293 90.6016 91.3606 91.8607 94.4766C91.8607 94.4766 93.4846 99.7249 101.178 98.0957C101.191 100.348 101.216 106.891 101.216 107.528H114.932L114.965 95.2822ZM38.0043 15.9111C38.785 15.7376 39.5778 15.6763 40.3734 15.7314L40.7142 15.7627L41.3939 15.8379L41.8617 16.1299C41.8845 16.1357 41.9168 16.1461 41.9613 16.1543C42.1594 16.191 42.4862 16.2236 42.975 16.2236V19.2236C41.9113 19.2236 41.1171 19.1013 40.5922 18.8564L40.3832 18.7441C39.8073 18.6802 39.2315 18.7119 38.6556 18.8398C38.1436 18.9678 37.5988 19.1283 37.0228 19.3203L36.7728 19.5088C36.1638 19.9428 35.3831 20.328 34.431 20.6641L34.0228 20.7793C33.071 21.0382 32.1192 21.2239 31.1674 21.3359C29.6954 21.5279 28.0629 21.8162 26.2709 22.2002C24.543 22.5842 22.9747 23.032 21.5668 23.5439C20.1592 23.9918 19.2316 24.4081 18.7836 24.792C18.4636 24.9839 18.2714 25.3359 18.2074 25.8477C18.1434 26.3597 18.1434 26.9045 18.2074 27.4805C18.3995 28.1203 18.879 28.7606 19.6468 29.4004C20.4148 29.9764 20.9597 30.0398 21.2797 29.5918C21.4239 29.4959 21.7656 29.3996 22.305 29.3037L22.9115 29.208C23.8073 29.08 24.8311 28.9839 25.9828 28.9199C27.1346 28.7919 28.1909 28.6958 29.1507 28.6318C30.1105 28.5679 30.7188 28.5362 30.975 28.5361C31.231 28.6001 31.1032 29.6561 30.5912 31.7041L30.3724 32.5195C29.7985 34.5914 28.7836 37.8395 27.3275 42.2637L27.2015 42.8223C27.0455 43.4582 26.7992 44.3279 26.4632 45.4316L26.1693 46.4883C25.8693 47.5442 25.5512 48.6003 25.2152 49.6562L24.8968 50.5918C24.5968 51.4558 24.3515 52.1041 24.1595 52.5361L24.0336 53.0518C23.8776 53.6518 23.6313 54.5042 23.2953 55.6084L21.7591 60.5996C21.1831 62.3916 20.6393 64.0885 20.1273 65.6885L19.4554 67.8242C19.2635 68.448 19.1029 68.9837 18.975 69.4316C18.527 70.9035 18.207 72.0557 18.015 72.8877C17.887 73.7197 17.6948 74.4884 17.4388 75.1924L16.4789 77.1123L12.4476 77.208L11.9369 77.2246C9.41701 77.3334 7.34686 77.8085 5.72692 78.6484L5.41247 78.8154C3.89057 79.6477 3.09971 80.4237 3.03942 81.1436C2.91143 81.6555 3.13536 82.1677 3.7113 82.6797C4.28727 83.1917 5.05507 83.576 6.01501 83.832C6.97499 84.088 7.9032 84.1524 8.79919 84.0244C11.0392 83.8964 12.7034 83.9281 13.7914 84.1201C14.8792 84.3121 15.6471 84.76 16.0951 85.4639C17.2471 86.6799 18.4635 87.1603 19.7435 86.9043C21.0873 86.7123 21.7274 86.1039 21.6634 85.0801C21.6634 84.6321 21.8873 84.3121 22.3353 84.1201C22.7833 83.9281 23.7751 83.7676 25.3109 83.6396C26.9109 83.5756 29.3755 83.4796 32.7035 83.3516C36.2872 83.4155 38.7828 82.8716 40.1908 81.7197C41.6628 80.5678 41.7588 79.1283 40.4789 77.4004C40.3256 76.9406 40.1712 76.6038 40.0179 76.3887C40.6423 77.1087 41.3629 77.6437 42.18 77.9932C43.0715 78.7584 44.2257 79.4957 45.642 80.2061C47.0364 80.8563 48.4995 81.4136 50.0306 81.8779C51.5398 82.2821 52.863 82.5498 54.0004 82.6807C54.9955 82.7952 55.9198 82.9018 56.7728 83C57.686 83.0763 58.6706 83.1603 59.7259 83.2529C61.2625 83.9195 62.4192 84.3843 63.1957 84.6465C64.0322 84.8868 64.6557 85.1027 65.0658 85.2939C65.5359 85.4633 65.9486 85.7557 66.3041 86.1709C67.8955 87.3624 68.8508 88.5816 69.1683 89.8281C69.4639 91.0146 69.0096 92.2018 67.807 93.3887C65.9704 95.0786 63.9369 96.2274 61.7064 96.835L61.3002 96.9395C59.2732 97.4338 57.3058 97.517 55.3988 97.1895C53.4249 96.8182 51.7953 96.083 50.5101 94.9844C49.657 94.1373 48.883 93.976 48.1888 94.501C47.5548 95.0042 46.9946 95.6171 46.5082 96.3389C45.9561 96.8804 45.4828 97.3597 45.0892 97.7754C44.6744 98.1309 44.8412 98.6831 45.5902 99.4316C46.0278 99.8853 46.8159 100.552 47.9535 101.432C49.091 102.312 50.3375 103.118 51.6937 103.851C53.0499 104.583 54.2886 105.085 55.4095 105.358C56.093 105.178 56.5693 105.175 56.8373 105.35L56.9515 105.412C57.2016 105.567 57.3222 105.794 57.3129 106.096C57.3198 106.095 57.6835 106.066 58.4037 106.006C59.1527 106.006 60.1231 105.959 61.3148 105.865C62.7199 105.422 64.3115 104.74 66.0882 103.821C67.8868 102.962 69.5027 102.069 70.9349 101.139C72.3886 100.269 73.2819 99.637 73.6156 99.2432C73.9709 98.9096 74.256 98.5677 74.4691 98.2178C74.7424 97.8459 75.1769 97.4485 75.7728 97.0273C76.5162 96.8246 77.1121 96.0293 77.5599 94.6406C78.0045 93.4062 78.2812 92.2846 78.391 91.2764L78.4281 90.8506C78.3841 89.9813 78.2036 88.9232 77.8861 87.6768C77.6694 86.6456 77.3353 85.6367 76.8881 84.6484L78.0033 80.6035C78.3378 79.2303 78.5909 77.7042 78.7621 76.0254L78.8304 75.2969C78.9407 73.7754 79.0199 72.3796 79.0687 71.1104L79.1078 69.8828C79.1237 68.2431 79.0652 67.2429 78.934 66.8818C78.934 66.8818 78.9775 66.6267 79.0648 66.1182C79.2123 65.5878 79.4418 65.0954 79.7533 64.6416C79.6441 64.3406 79.7265 63.63 79.9994 62.5098C80.3107 61.3067 80.4334 60.2401 80.3675 59.3105C80.6132 57.9272 80.9652 56.7431 81.4242 55.7588C81.9108 54.8156 82.4074 54.2283 82.9134 53.9961L83.015 53.9541C83.3717 53.6711 83.9652 53.302 84.7953 52.8467L85.7045 52.3623C86.6762 51.8043 87.7219 51.2384 88.8412 50.665L89.9857 50.0889C91.582 49.2355 93.0497 48.4967 94.389 47.873C95.7884 47.2275 96.7589 46.8064 97.3002 46.6094L98.4398 46.0918L103.013 60.0586C103.52 61.6597 103.936 62.9865 104.264 64.0381C104.135 64.2942 104.01 64.5404 103.891 64.7773C102.958 64.9221 102.04 65.1132 101.148 65.3555C95.8723 61.8704 93.5484 62.5883 93.5404 62.5908C92.6447 59.7277 92.6479 59.7265 92.6507 59.7256C92.6519 59.7252 92.654 59.7241 92.6556 59.7236C92.6594 59.7225 92.6635 59.7219 92.6674 59.7207C92.6752 59.7183 92.6836 59.7153 92.6918 59.7129C92.708 59.7081 92.7251 59.7041 92.7425 59.6992C92.7778 59.6894 92.8155 59.6788 92.8558 59.6689C92.9365 59.6492 93.0275 59.6301 93.1283 59.6123C93.3302 59.5766 93.5706 59.5478 93.85 59.5352C94.4108 59.5098 95.1148 59.5502 95.9652 59.7246C97.1305 59.9637 98.559 60.451 100.274 61.3496C100.237 61.2321 100.2 61.1129 100.161 60.9922L96.6136 50.1553C96.325 50.2851 96.0032 50.4328 95.6459 50.5977L95.6449 50.5967C94.3678 51.1917 92.9537 51.9036 91.3998 52.7344L91.3588 52.7568L91.3168 52.7773C89.8051 53.5258 88.4331 54.255 87.1986 54.9639L87.1429 54.9951L87.0863 55.0244C85.7661 55.7097 85.1053 56.1253 84.8802 56.3037L84.4984 56.6064L84.3793 56.6494C84.3646 56.6703 84.3462 56.6926 84.3285 56.7197C84.2681 56.8123 84.1962 56.9327 84.1156 57.0859C83.8325 57.7083 83.5786 58.5122 83.3793 59.5293C83.4117 60.7253 83.2347 61.9651 82.9134 63.2188C82.8204 63.6009 82.768 63.8804 82.7377 64.0713L83.1009 65.0664L82.2269 66.3398C82.1233 66.4909 82.0451 66.6485 81.9877 66.8193C81.9869 66.8236 81.9864 66.8278 81.9857 66.832C82.0351 67.1712 82.0568 67.4883 82.0707 67.7295C82.105 68.3255 82.1151 69.0612 82.1068 69.9121V69.9551C82.0676 71.5951 81.9722 73.4497 81.8226 75.5137L81.8187 75.5527C81.6395 77.6417 81.3439 79.5665 80.9183 81.3135L80.9076 81.3564L80.8959 81.3994L80.0541 84.4541C80.3621 85.2652 80.6095 86.0926 80.7933 86.9365L80.9174 87.4414C81.1933 88.6087 81.3738 89.7037 81.4242 90.6992L81.433 90.8701L81.4222 91.041C81.3305 92.4866 80.9685 94.0019 80.4144 95.5605C79.9707 96.9365 79.0961 98.8497 77.2259 99.6836C77.1435 99.7488 77.0765 99.8076 77.0218 99.8574C76.9621 99.912 76.9258 99.9514 76.9056 99.9736C76.5787 100.472 76.1932 100.922 75.7728 101.329C75.3635 101.772 74.8563 102.159 74.4271 102.462C73.9026 102.833 73.2568 103.244 72.5111 103.69C70.9679 104.688 69.2556 105.634 67.3812 106.529C65.534 107.48 63.809 108.225 62.2181 108.727L61.891 108.829L61.5492 108.856C60.3868 108.947 59.3792 108.997 58.5472 109.003C58.2354 109.029 57.9973 109.05 57.8334 109.063C57.7427 109.071 57.6747 109.076 57.6293 109.08C57.6065 109.082 57.5889 109.083 57.5775 109.084C57.572 109.084 57.5676 109.086 57.5648 109.086H57.5609L54.2084 109.364L54.2455 108.152C52.9509 107.79 51.6215 107.221 50.2689 106.49C48.779 105.686 47.3932 104.792 46.1175 103.805C44.9968 102.938 44.0732 102.17 43.4701 101.553C42.9928 101.076 42.3334 100.322 42.0316 99.3242C41.8635 98.7681 41.7829 98.0554 41.9935 97.2861C42.1849 96.5871 42.5628 96.0374 42.9867 95.6328C43.3432 95.2585 43.75 94.8472 44.2035 94.3994C44.8093 93.5497 45.5139 92.7939 46.3236 92.1514L46.3509 92.1299L46.3793 92.1084C47.3384 91.3831 48.5752 91.0149 49.9017 91.291C51.0019 91.5201 51.8615 92.1327 52.4906 92.7285C53.2999 93.4104 54.4011 93.9439 55.9213 94.2344C57.485 94.5007 59.1423 94.4196 60.9252 93.9385C62.6367 93.471 64.2335 92.5863 65.7308 91.2197C66.0974 90.8514 66.2162 90.6187 66.2474 90.5371C66.248 90.5355 66.2479 90.5337 66.2484 90.5322C66.1523 90.2095 65.7812 89.5279 64.5062 88.5732L64.2406 88.374L64.0248 88.1221L64.0043 88.0996L63.9213 88.0703L63.7982 88.0127C63.606 87.9231 63.164 87.7591 62.3675 87.5303L62.3011 87.5107L62.2357 87.4893C61.4249 87.2155 60.3306 86.7766 58.9886 86.2012C58.1152 86.125 57.2931 86.0536 56.5228 85.9893L56.4759 85.9854L56.43 85.9805C55.6722 85.8932 54.5576 85.7647 53.6576 85.6611C52.3323 85.5086 50.8582 85.2059 49.2543 84.7764L49.2074 84.7637L49.1605 84.749C47.499 84.2452 45.9025 83.6383 44.3744 82.9258L44.3353 82.9072L44.2972 82.8877C44.0328 82.755 43.7743 82.6188 43.5209 82.4814C43.1284 83.0902 42.6312 83.6101 42.0902 84.041C39.8232 85.8959 36.4147 86.4072 32.7465 86.3516C29.5101 86.4761 27.0986 86.5704 25.5111 86.6338C25.0848 86.6698 24.7211 86.7076 24.4154 86.7451C24.2006 87.368 23.8395 87.9633 23.2972 88.4785C22.3805 89.3494 21.2415 89.7028 20.2865 89.8535C17.7265 90.3477 15.5412 89.2414 13.9173 87.5273L13.7191 87.3184L13.6254 87.1719C13.5688 87.1482 13.4581 87.1074 13.2699 87.0742C12.5468 86.9466 11.1884 86.8953 9.02672 87.0166C7.75874 87.1704 6.48993 87.0631 5.24255 86.7305C3.95676 86.3876 2.73031 85.8216 1.71813 84.9219C0.774123 84.0827 -0.301873 82.5915 0.0784827 80.6445C0.270717 79.3136 1.06849 78.3494 1.71813 77.7461C2.44556 77.0706 3.36579 76.4927 4.34606 75.9844C6.6116 74.8097 9.34416 74.2797 12.3754 74.209L14.6029 74.1553L14.6625 74.0371C14.823 73.569 14.957 73.0369 15.0502 72.4316L15.0668 72.3223L15.0922 72.2139C15.3055 71.2895 15.6445 70.0724 16.0941 68.5938C16.3629 67.654 16.7571 66.3758 17.2699 64.7734C17.7823 63.1721 18.3264 61.4747 18.9027 59.6816C19.4738 57.8413 19.9814 56.1923 20.4252 54.7344C20.8752 53.2558 21.131 52.3338 21.2308 51.8848L21.2963 51.5918L21.4174 51.3174C21.6094 50.8853 21.9226 50.0473 22.3666 48.7158C22.7983 47.3574 23.1986 45.9995 23.5687 44.6426L23.5804 44.6006L23.5931 44.5586C24.0403 43.0893 24.2888 42.1575 24.3851 41.6758L24.4213 41.498L24.4779 41.3262C25.923 36.9353 26.9106 33.7693 27.4632 31.7822C27.0936 31.8181 26.7108 31.8574 26.3148 31.9014L26.2318 31.9111L26.1498 31.915C25.0619 31.9755 24.1263 32.0647 23.3353 32.1777C23.093 32.2123 22.9024 32.2452 22.7562 32.2725C22.5904 32.3835 22.4109 32.4863 22.2152 32.5732C21.5416 32.8726 20.8654 32.9282 20.2806 32.8594C19.2218 32.7348 18.3779 32.1979 17.847 31.7998L17.7855 31.7539L17.7269 31.7051C16.7172 30.8637 15.7591 29.7609 15.3334 28.3418L15.2552 28.082L15.2259 27.8115C15.1391 27.0299 15.1343 26.2476 15.2308 25.4756L15.2591 25.2744C15.4169 24.3135 15.8811 23.1491 17.0121 22.3662C17.9601 21.6308 19.3183 21.1148 20.598 20.7051C22.1328 20.1502 23.8095 19.6739 25.6205 19.2715L25.6312 19.2686L25.6429 19.2666C27.4966 18.8694 29.2101 18.5659 30.7787 18.3613L30.7982 18.3584L30.8168 18.3564C31.7071 18.2517 32.6045 18.0681 33.5111 17.8057C34.3535 17.5015 34.8632 17.2059 35.1488 16.9775L35.5668 16.6436L36.0746 16.4736C36.7126 16.2609 37.3308 16.0788 37.9271 15.9297L37.9662 15.9199L38.0043 15.9111ZM67.7728 33.2275C69.0413 32.9702 69.8352 33.4653 70.1527 34.7119C70.4701 35.9585 70.1802 38.3453 69.2845 41.8721C68.394 44.1031 67.889 45.6153 67.7689 46.4082C67.709 47.179 67.7667 47.8051 67.9418 48.2861C68.2975 49.4507 69.1451 50.0963 70.4847 50.2217C71.7585 50.3158 73.0398 49.8125 74.3314 48.7158C74.0695 49.4159 73.7181 50.0974 73.2699 50.7578C72.4719 51.9336 71.9777 52.7275 71.7865 53.1377C71.333 53.5751 71.051 54.0176 70.9418 54.4658C70.8107 54.8541 70.9038 55.2974 71.2211 55.7949C71.2867 55.9754 71.4106 56.4075 71.5912 57.0908C71.7718 57.7743 71.8758 58.9965 71.9037 60.7568C71.9698 62.4355 71.7731 64.8905 71.3148 68.1221C70.7694 72.6113 70.3737 75.9221 70.1283 78.0547C70.1075 78.2355 70.0903 78.4115 70.0736 78.582C68.675 77.9929 67.0954 77.4461 65.3334 76.9453L64.4974 76.7148C62.5165 76.1844 60.46 75.7337 58.3285 75.3623L57.4105 75.208C54.5616 74.6785 52.2813 74.2141 50.5697 73.8154C49.0011 73.3648 47.8815 72.7512 47.2113 71.9736L47.0834 71.8154C46.3603 71.0569 45.9111 69.8994 45.7357 68.3428L45.7045 68.0264C45.5451 66.3606 45.6881 64.7044 46.1341 63.0576L46.2279 62.7285C46.5718 60.8667 46.9044 59.2381 47.2269 57.8438L47.5463 56.5273C47.9668 54.8759 48.6471 53.47 49.5873 52.3105C50.6531 51.3097 51.1257 50.4563 51.0052 49.751C51.0221 49.6084 51.2732 49.1763 51.7591 48.4551C52.0023 48.0942 52.2705 47.7077 52.5629 47.2949L53.514 45.9775C54.0551 45.2188 54.6023 44.4769 55.1556 43.752L55.7113 43.0332C56.2688 42.3195 56.7659 41.7034 57.2035 41.1865L57.6215 40.7031C58.1899 40.0195 58.5344 39.6551 58.6547 39.6113C58.9171 39.5839 59.0152 39.4802 58.9496 39.2998C58.884 39.1195 58.8509 39.0293 58.8509 39.0293C58.8075 38.9089 59.1522 38.5452 59.8841 37.9385C60.4785 37.4668 61.1471 36.9871 61.889 36.5L62.6566 36.0098C63.7497 35.2715 64.7743 34.6257 65.7308 34.0732C66.6872 33.5209 67.3681 33.2388 67.7728 33.2275ZM84.1615 2.13086C85.9151 1.56004 87.7636 1.45663 89.6498 1.74219L89.6488 1.74316C91.4873 1.96557 93.2448 2.46042 94.9066 3.23535C96.4307 3.94608 97.8057 4.81671 98.848 5.92188C99.4789 6.49354 99.8947 7.20231 100.17 7.75C100.512 8.42995 100.818 9.23144 101.098 10.1045C101.509 11.3846 101.953 12.874 102.431 14.5684C103.398 14.2184 104.432 14.0047 105.488 13.8623C107.558 13.5831 110.135 13.5283 113.219 13.5283V16.5283C105.475 16.5283 102.136 16.8947 100.722 19.6963C100.459 18.7167 100.203 17.7627 99.9486 16.8359C99.4765 15.1177 99.0385 13.5978 98.6341 12.2764L98.2416 11.0215C97.7326 9.43594 97.2399 8.45664 96.764 8.08496C96.161 7.4106 95.2879 6.78231 94.1449 6.2002L93.639 5.9541C92.2445 5.30384 90.7644 4.88799 89.2006 4.70801C87.615 4.46799 86.1602 4.5888 84.8373 5.07031C84.2962 5.26734 83.7528 5.73805 83.2064 6.48145L83.0052 6.76855C82.548 7.45642 82.1646 8.27432 81.8539 9.22168L81.5424 10.2666C80.8236 12.7332 80.1496 15.3925 79.5189 18.2441L79.0443 20.6074C78.5908 22.905 78.1999 25.0071 77.8724 26.9141C77.6694 27.9937 77.4794 29.0179 77.3021 29.9863C76.6514 28.964 75.7515 28.1394 74.6009 27.5137L74.3246 27.3701C73.066 26.6959 71.7051 26.2414 70.2416 26.0068L69.6088 25.9199C67.8808 25.6634 66.2533 25.7785 64.7279 26.2656C63.1042 26.8567 61.0103 28.0271 58.4466 29.7773C55.8609 31.4676 52.9034 34.0085 49.5746 37.3994C48.7877 38.9799 47.9594 40.1669 47.0902 40.96C46.2211 41.753 45.669 42.2951 45.434 42.585C45.4278 42.5872 45.3375 42.6202 45.1634 42.6836C45.0434 42.7275 45.0078 42.9103 45.057 43.2324C45.057 43.2324 44.8846 43.6016 44.5404 44.3398C44.1742 45.018 43.8386 45.6856 43.5326 46.3418C43.0243 47.0036 42.4171 48.144 41.7123 49.7627C41.0458 51.2991 40.374 53.0079 39.6966 54.8887L39.2093 56.2861C38.7423 57.6692 38.3366 59.0106 37.9925 60.3105C37.5119 61.9839 37.2442 63.3079 37.1898 64.2812C36.9334 66.0091 36.9526 67.8409 37.2484 69.7764C37.6044 71.69 38.1981 73.415 39.0297 74.9512C39.2854 75.4174 39.5658 75.8369 39.8695 76.2109C39.644 75.9835 39.0153 75.8992 37.9828 75.96C36.8947 76.024 34.8468 76.2162 31.8392 76.5361L30.6449 76.6318C29.5051 76.7278 28.5272 76.8239 27.7113 76.9199C26.6381 76.9831 26.0941 77.0148 26.0795 77.0156C26.3354 76.1197 26.5752 75.2716 26.7992 74.4717L27.4232 72.2158C27.7112 71.1118 28.0172 69.9897 28.3412 68.8496L28.6713 67.7041C29.1193 66.1041 29.6314 64.2477 30.2074 62.1357C30.8474 60.0238 31.6151 57.3995 32.5111 54.2637C32.5751 53.9437 32.6712 53.4639 32.7992 52.8242C32.9432 52.2961 33.1055 51.8038 33.2855 51.3477L33.4711 50.9043C33.6631 50.4563 33.983 49.5915 34.431 48.3115C34.879 46.9676 35.3595 45.4954 35.8715 43.8955C36.1594 43.0638 36.4394 42.248 36.7113 41.4482L37.5033 39.0957C38.0152 37.5598 38.3996 36.3759 38.6556 35.5439C39.1675 34.1362 39.5827 32.8242 39.9027 31.6084C40.2867 30.3284 40.4472 29.5597 40.3832 29.3037C40.639 28.9839 40.8314 28.6963 40.9593 28.4404C41.1032 28.2486 41.2648 28.0561 41.4447 27.8643L41.6312 27.6719C41.9515 27.1599 44.2239 26.7121 48.4476 26.3281C50.1113 26.2641 51.455 26.1997 52.4789 26.1357C53.5029 26.0077 54.3033 25.88 54.8793 25.752C55.8992 25.8119 56.6376 25.5062 57.0951 24.835L57.183 24.6963C57.603 23.9163 57.686 22.9671 57.431 21.8496L57.3754 21.624C56.9553 20.784 56.0851 20.1129 54.765 19.6104L54.4955 19.5117C53.0875 18.9357 50.5912 18.8079 47.0072 19.1279C45.5992 19.1919 44.255 19.2236 42.975 19.2236V16.2236C44.1905 16.2236 45.4726 16.1925 46.8216 16.1318C50.2834 15.8274 53.3503 15.8633 55.4799 16.6787C57.2923 17.3091 59.1085 18.3836 60.058 20.2822L60.1976 20.5605L60.2767 20.8604C60.6359 22.2253 60.7145 23.6897 60.2611 25.0918C61.5041 24.3854 62.6539 23.8279 63.7025 23.4463L63.7582 23.4258L63.8158 23.4072C65.8063 22.7717 67.888 22.6359 70.016 22.9473C71.8691 23.1675 73.6222 23.6743 75.2562 24.4775C75.6332 22.3953 76.0748 20.1173 76.5795 17.6445L76.5843 17.6201L76.5892 17.5967C77.3241 14.2741 78.1216 11.1906 78.9828 8.35059L78.9925 8.31836L79.0033 8.28711C79.4351 6.9706 80.0158 5.75656 80.7884 4.70508C81.4927 3.74678 82.4713 2.73989 83.8119 2.25195L84.1615 2.13086ZM67.2318 36.6709C66.3463 37.1823 65.3812 37.7897 64.3353 38.4961L64.2884 38.5273L64.2406 38.5576C63.3187 39.1312 62.5327 39.6782 61.8715 40.1943C61.7556 40.6566 61.522 41.1346 61.1039 41.5762C60.8428 41.8518 60.5604 42.0502 60.2884 42.1963C60.2816 42.2041 60.2751 42.2125 60.2679 42.2207C60.1726 42.3301 60.0592 42.4634 59.9281 42.6211L59.9007 42.6543L59.8724 42.6865C59.3956 43.2275 58.7986 43.9542 58.0756 44.8799C57.3599 45.796 56.6532 46.7426 55.9564 47.7197L55.9437 47.7373L55.931 47.7539C55.2647 48.6606 54.7051 49.4526 54.2474 50.1318C54.1462 50.282 54.0598 50.4123 53.9877 50.5244C53.8984 51.2311 53.6506 51.8595 53.3656 52.374C52.9652 53.0967 52.4151 53.7427 51.8265 54.3174C51.2386 55.0779 50.766 56.0403 50.4535 57.2676C50.0552 58.8317 49.6297 60.8286 49.1781 63.2734L49.1488 63.4277L49.1049 63.5791C48.7436 64.801 48.5961 66.0106 48.6537 67.2217L48.6927 67.7686C48.8122 69.1531 49.1482 69.6335 49.2543 69.7451L49.3685 69.8643L49.4681 69.9951C49.5501 70.1025 49.9758 70.5125 51.3314 70.9111C52.9697 71.2906 55.1693 71.7395 57.9466 72.2559C60.4805 72.668 62.9229 73.1881 65.2728 73.8174C66.0512 74.0258 66.8033 74.2445 67.5287 74.4717C67.7463 72.6413 68.0161 70.404 68.3373 67.7607L68.3402 67.7305L68.3451 67.7012C68.797 64.5148 68.9608 62.2758 68.9056 60.875L68.9037 60.8037C68.8756 59.0327 68.7672 58.147 68.6908 57.8574C68.603 57.5254 68.532 57.2671 68.4779 57.0771C68.4697 57.0485 68.4613 57.0224 68.4545 56.999C68.0014 56.1403 67.6742 54.9771 68.0443 53.6914C68.1272 53.37 68.2389 53.0677 68.3734 52.7842C67.9071 52.6011 67.4532 52.355 67.0277 52.0312C66.0791 51.3095 65.4681 50.3488 65.1234 49.3115L65.1224 49.3125C65.1131 49.2867 65.106 49.2602 65.097 49.2344C65.0894 49.2104 65.08 49.1871 65.0726 49.1631L65.0736 49.1621C64.7446 48.1706 64.7037 47.128 64.7777 46.1758L64.7865 46.0674L64.8031 45.959C64.9781 44.8039 65.5909 43.048 66.4193 40.96C66.824 39.3461 67.0765 38.0605 67.1957 37.0762C67.2133 36.9304 67.2271 36.7941 67.2386 36.667C67.2364 36.6683 67.2341 36.6696 67.2318 36.6709ZM54.5599 28.8643C54.0493 28.9504 53.4767 29.0351 52.8509 29.1133L52.7591 29.124L52.6664 29.1299C51.626 29.1949 50.2832 29.2589 48.6459 29.3223C46.6053 29.5092 45.1268 29.704 44.1556 29.8955C43.8749 29.9509 43.6671 30.0004 43.5199 30.04C43.499 30.064 43.4813 30.0894 43.4623 30.1123C43.4128 30.1979 43.3598 30.2811 43.307 30.3643C43.2881 30.4741 43.2697 30.5814 43.2484 30.6836C43.1429 31.19 42.9789 31.796 42.7767 32.4697C42.4389 33.7394 42.0124 35.0839 41.4994 36.5C41.2336 37.3601 40.8488 38.5455 40.349 40.0449C39.8383 41.5769 39.2959 43.1706 38.723 44.8262C38.2099 46.4294 37.7286 47.908 37.2777 49.2607L37.2699 49.2822L37.2631 49.3027C36.8188 50.5721 36.4671 51.53 36.2289 52.0859L36.2211 52.1045L36.2123 52.1221C36.0349 52.5212 35.8678 52.9909 35.7152 53.5381C35.5997 54.1155 35.5122 54.5539 35.4525 54.8525L35.4291 54.9717L35.3959 55.0879C34.506 58.2025 33.7395 60.8226 33.097 62.9443C32.5219 65.0531 32.0089 66.9093 31.5599 68.5127L31.556 68.5283L31.5511 68.5439C31.1107 70.0539 30.702 71.5307 30.3256 72.9736L30.3177 73.0049C30.2589 73.2206 30.1959 73.4406 30.1341 73.665C30.5846 73.6263 31.0586 73.5872 31.556 73.5488C32.8915 73.4068 34.0509 73.2897 35.0287 73.1963C34.7261 72.2736 34.4835 71.3158 34.2992 70.3252L34.2904 70.2773L34.2826 70.2295C33.9523 68.0687 33.9176 65.9672 34.2074 63.9404C34.2993 62.6688 34.6284 61.1546 35.1088 59.4824C35.5892 57.675 36.1786 55.805 36.8744 53.873C37.5694 51.9431 38.2641 50.1733 38.9603 48.5684L38.9623 48.5645C39.612 47.0723 40.2683 45.7635 40.9388 44.8086C41.2241 44.209 41.5304 43.6044 41.8578 42.9951C41.9346 42.8303 42.0015 42.6849 42.0599 42.5596C42.07 42.4696 42.0837 42.3772 42.1019 42.2832C42.2062 41.7448 42.5752 40.6834 43.6693 40.0771C44.0564 39.6825 44.5404 39.2263 45.0687 38.7441L45.2601 38.5566C45.7215 38.076 46.2797 37.2863 46.889 36.0625L47.1009 35.6377L47.434 35.2979C49.9659 32.7187 52.3427 30.5625 54.5599 28.8643ZM105.643 38.6826C107.521 38.9611 109.986 39.0283 113.219 39.0283C115.048 39.0283 116.632 39.0057 118.002 38.9375C117.993 38.9584 117.984 38.9791 117.975 39C117.335 40.1518 116.439 41.1437 115.287 41.9756C114.136 42.8075 113.4 43.3841 113.079 43.7041C112.503 43.9601 112.087 44.2801 111.831 44.6641C111.575 44.984 111.511 45.4319 111.639 46.0078C111.639 46.1998 111.607 46.6478 111.543 47.3516L111.507 47.6387C111.395 48.3597 111.087 49.4484 110.583 50.9043C110.366 51.5836 110.054 52.3771 109.652 53.2871C108.772 50.3511 107.901 47.3178 107.043 44.1865C106.564 42.3154 106.096 40.4809 105.643 38.6826ZM90.8275 14.2305L90.9935 14.5596C91.3759 15.3441 91.7233 16.2457 92.0345 17.2646C92.3027 18.1886 92.6416 19.4953 93.0521 21.1846C93.4408 22.8139 93.8543 24.6048 94.2924 26.5566C94.7085 28.4484 95.1026 30.2803 95.475 32.0518C95.8473 33.8232 96.1516 35.3132 96.3871 36.5215C96.6225 37.7294 96.7315 38.4045 96.7152 38.5469C96.7068 38.5477 96.5755 38.5614 96.3216 38.5879C96.1194 38.5933 95.8433 38.4894 95.4935 38.2764C95.067 38.2273 94.5642 38.3431 93.9847 38.6221C93.3833 38.841 92.6342 39.2155 91.7377 39.7461C90.9012 40.2549 89.8567 40.9414 88.6049 41.8057C87.8834 42.0683 87.0744 42.4647 86.1781 42.9951C85.3198 43.4437 84.581 43.8489 83.9632 44.21C83.3456 44.571 83.0365 44.752 83.0365 44.752L82.9965 44.7363C82.8039 44.6347 82.7433 44.1558 82.8148 43.2998C82.9293 42.3047 83.0818 41.2275 83.2728 40.0684C83.5021 38.8272 83.7159 37.7283 83.9125 36.7715C84.1472 35.7329 84.3027 35.1311 84.3793 34.9668C84.6799 34.8573 84.9505 34.3835 85.1908 33.5469C85.4912 32.6884 85.7338 31.5781 85.9193 30.2168C86.2848 27.2916 86.7165 24.5468 87.2132 21.9824C87.7483 19.3359 88.2673 17.2059 88.7699 15.5928C89.3107 13.8976 89.7616 12.9839 90.1224 12.8525C90.1267 12.8609 90.3613 13.3204 90.8275 14.2305ZM109.711 42.5059C109.869 42.3227 110.037 42.1544 110.212 42C109.998 41.9954 109.787 41.9894 109.578 41.9834C109.623 42.1572 109.667 42.3314 109.711 42.5059ZM144.28 13.6562L144.323 14.0225C144.414 14.8903 144.431 15.8561 144.375 16.9199C144.311 17.8799 144.184 19.2241 143.992 20.9521C143.8 22.6161 143.575 24.4399 143.319 26.4238C143.063 28.3438 142.807 30.2002 142.551 31.9922L142.191 34.4639C142.079 35.2159 141.975 35.8959 141.879 36.5039C141.688 37.7183 141.56 38.3903 141.495 38.5195L141.111 38.4238C140.919 38.3597 140.695 38.1674 140.439 37.8477C140.055 37.6558 139.542 37.5923 138.903 37.6562C138.263 37.6563 137.431 37.7524 136.408 37.9443C135.448 38.1363 134.231 38.4236 132.759 38.8076C131.991 38.8076 131.095 38.9038 130.072 39.0957L128.727 39.2881C128.311 39.3521 127.927 39.4165 127.576 39.4805L126.519 39.6719C126.327 39.5437 126.423 39.0638 126.807 38.2324C127.255 37.3364 127.767 36.3756 128.343 35.3516C128.983 34.2637 129.56 33.3036 130.072 32.4717C130.647 31.576 130.999 31.0635 131.127 30.9355C131.447 30.9354 131.863 30.5838 132.375 29.8799C132.879 29.264 133.407 28.4521 133.96 27.4443L134.2 27C135.543 24.3762 136.887 21.944 138.231 19.7041C139.639 17.4002 140.855 15.5764 141.879 14.2324C142.967 12.8244 143.703 12.1201 144.087 12.1201C144.088 12.1294 144.153 12.6416 144.28 13.6562ZM90.1576 22.5518C89.675 25.0427 89.255 27.7218 88.8968 30.5889L88.8939 30.6055L88.892 30.6221C88.6963 32.0579 88.4251 33.3555 88.0482 34.457C87.8985 34.9642 87.6993 35.5152 87.4115 36.0186C87.3267 36.1668 87.2037 36.3592 87.0404 36.5684C86.9867 36.788 86.9229 37.0612 86.848 37.3916C86.7199 38.0159 86.5846 38.7056 86.4408 39.4609C86.697 39.3415 86.9508 39.2306 87.2025 39.1299C88.3509 38.3422 89.3453 37.6892 90.1781 37.1826L90.1937 37.1738L90.2093 37.1641C91.1306 36.6188 92.0153 36.1612 92.8295 35.8516C92.9379 35.802 93.0501 35.7542 93.1654 35.708C92.9849 34.8134 92.7773 33.8005 92.5394 32.6689C92.1691 30.9072 91.7769 29.0844 91.3627 27.2012C90.9611 25.4117 90.5787 23.7612 90.2201 22.25C90.1996 22.3498 90.1781 22.4502 90.1576 22.5518ZM115.369 18.79C117.373 18.8156 118.957 18.8881 120.248 19.0645C121.939 19.2928 122.738 19.6547 123.17 20.0146C123.542 20.3252 123.899 20.8506 124.142 22.0986C124.376 23.2777 124.45 24.7668 124.465 26.7891C123.872 27.8187 123.34 28.7525 122.871 29.5918C121.655 31.7038 120.663 33.4641 119.895 34.8721C119.601 35.4591 119.32 36.0413 119.049 36.6172C117.513 36.7443 115.619 36.7783 113.219 36.7783C110.152 36.7783 107.912 36.7265 106.19 36.4902C105.751 36.4313 105.373 36.3617 105.045 36.2871C104.788 35.2582 104.533 34.2424 104.285 33.2383C103.466 29.9286 102.713 27.0523 102.027 24.6084C102.074 23.6278 102.155 22.8071 102.296 22.0986C102.539 20.8501 102.897 20.3251 103.269 20.0146C103.701 19.6547 104.499 19.2928 106.19 19.0645C107.912 18.8293 110.152 18.7783 113.219 18.7783L115.369 18.79ZM140.791 21.2686C139.49 23.4385 138.182 25.8038 136.869 28.3672L136.862 28.3828L136.854 28.3975C136.185 29.6681 135.493 30.7855 134.769 31.6875C134.451 32.1204 134.068 32.5799 133.617 32.9619C133.486 33.0724 133.305 33.2126 133.079 33.3535C132.949 33.549 132.788 33.7948 132.595 34.0947C132.267 34.6282 131.912 35.2181 131.527 35.8643C131.809 35.8396 132.086 35.822 132.357 35.8135C133.705 35.4661 134.863 35.1931 135.819 35.002L135.836 34.999L135.854 34.9951C136.904 34.7981 137.891 34.671 138.761 34.6582C138.881 34.6485 139.004 34.6418 139.129 34.6377C139.266 33.7353 139.418 32.7121 139.581 31.5674C139.836 29.7854 140.09 27.9386 140.345 26.0273C140.58 24.2082 140.785 22.5272 140.965 20.9844C140.908 21.0781 140.85 21.1729 140.791 21.2686ZM113.132 31.1533C112.559 31.1536 112.094 31.6575 112.094 32.2783C112.094 32.8604 112.503 33.3399 113.027 33.3975L113.132 33.4033H120.056C120.629 33.4031 121.094 32.8991 121.094 32.2783C121.094 31.6574 120.629 31.1535 120.056 31.1533H113.132ZM107.07 23.5039C106.626 23.1608 105.971 23.2135 105.596 23.6309C105.21 24.0606 105.277 24.7026 105.733 25.0547C105.872 25.1629 106.013 25.2714 106.155 25.3799C106.216 25.4271 106.278 25.4741 106.34 25.5215C107.375 26.3123 108.426 27.1157 109.242 28.0596C108.416 29.0169 107.384 29.8036 106.343 30.5967L106.341 30.5977C106.139 30.7517 105.935 30.9072 105.733 31.0635C105.278 31.4156 105.21 32.0585 105.596 32.4883C105.971 32.9065 106.628 32.9569 107.07 32.6152C107.24 32.4841 107.41 32.3535 107.582 32.2227L107.696 32.1367C108.932 31.1964 110.202 30.2299 111.157 28.9893L111.159 28.9883C111.335 28.7543 111.532 28.4364 111.532 28.0596C111.532 27.6818 111.335 27.3658 111.159 27.1318L111.157 27.1299C110.217 25.9083 108.905 24.9058 107.671 23.9639L107.667 23.9619L107.071 23.5049L107.07 23.5039ZM113.219 21.7783C111.902 21.7783 110.775 21.789 109.799 21.8164C110.859 22.6261 112.214 23.6866 113.3 25.0059L113.536 25.3008L113.71 25.5273L113.741 25.5898C114.057 26.0583 114.532 26.9213 114.532 28.0596C114.532 28.091 114.529 28.1223 114.529 28.1533H120.056C120.116 28.1533 120.175 28.1548 120.234 28.1572C120.246 28.1363 120.259 28.1157 120.271 28.0947C120.63 27.4519 121.026 26.7563 121.454 26.0068C121.426 24.4728 121.352 23.4507 121.2 22.6836L121.197 22.6719C121.166 22.5123 121.134 22.3889 121.108 22.2949C120.877 22.221 120.482 22.1238 119.847 22.0381L119.842 22.0371C118.35 21.8334 116.303 21.7783 113.219 21.7783Z" fill="white"/>
</svg>
